# xmcd
#
# Track frame offsets:
#	150
#	12040
#	25762
#	36524
#	51166
#	63739
#	74556
#	89985
#	105602
#	122145
#	138124
#
# Disc length: 2006 seconds
#
# Revision: 0
# Processed by: cddbd v1.5.2PL0 Copyright (c) Steve Scherf et al.
# Submitted via: EasyCDDAExtractor 16.0.8.1
#
DISCID=a007d40b
DTITLE=Sula Mazurega - Vol.01 - Presença De Deus
DYEAR=1985
DGENRE=
TTITLE0=Pedágio Do Amor
TTITLE1=O Sucessor
TTITLE2=Moreninho Lindo
TTITLE3=Quero Ver Aquele Que Não Chora
TTITLE4=Noitadas De Paris
TTITLE5=Busca Imensa
TTITLE6=Presença De Deus
TTITLE7=Mais Uma Noite
TTITLE8=Sonho Louco
TTITLE9=Está Tudo Acabado
TTITLE10=Amor De Minha Vida
EXTD=
EXTT0=
EXTT1=
EXTT2=
EXTT3=
EXTT4=
EXTT5=
EXTT6=
EXTT7=
EXTT8=
EXTT9=
EXTT10=
PLAYORDER=
